<svg width="200" height="200" viewBox="0 0 200 200" fill="none" xmlns="http://www.w3.org/2000/svg">
	<g clip-path="url(#clip0_390_2)">
		<rect width="200" height="200" rx="20" fill="black" />
		<path
			d="M109.76 160.92C101.013 160.92 92.8533 159.48 85.28 156.6C77.8133 153.613 71.2533 149.453 65.6 144.12C59.9467 138.787 55.52 132.547 52.32 125.4C49.2267 118.147 47.68 110.307 47.68 101.88C47.68 93.3467 49.2267 85.5067 52.32 78.36C55.52 71.2133 59.8933 65.0267 65.44 59.8C71.0933 54.5733 77.6533 50.52 85.12 47.64C92.5867 44.6533 100.693 43.16 109.44 43.16C118.293 43.16 126.4 44.5467 133.76 47.32C141.12 50.0933 147.52 53.9333 152.96 58.84L131.68 80.28C129.12 77.5067 125.973 75.32 122.24 73.72C118.613 72.12 114.347 71.32 109.44 71.32C105.173 71.32 101.227 72.0133 97.6 73.4C94.08 74.7867 91.04 76.8133 88.48 79.48C85.92 82.1467 83.8933 85.4 82.4 89.24C81.0133 92.9733 80.32 97.1867 80.32 101.88C80.32 106.68 81.0133 111 82.4 114.84C83.8933 118.573 85.92 121.773 88.48 124.44C91.04 127.107 94.08 129.187 97.6 130.68C101.227 132.067 105.173 132.76 109.44 132.76C114.24 132.76 118.507 132.013 122.24 130.52C126.08 129.027 129.387 126.84 132.16 123.96L153.6 145.4C147.947 150.307 141.6 154.147 134.56 156.92C127.52 159.587 119.253 160.92 109.76 160.92Z"
			fill="white" />
		<line x1="92.2236" y1="124.768" x2="66.7677" y2="150.224" stroke="black" stroke-width="5" />
		<path d="M85.4558 116.544L60 142" stroke="black" stroke-width="5" />
	</g>
	<defs>
		<clipPath id="clip0_390_2">
			<rect width="200" height="200" rx="20" fill="white" />
		</clipPath>
	</defs>
</svg>
